<svg width="512" height="512" viewBox="0 0 512 512" fill="none" xmlns="http://www.w3.org/2000/svg">
<circle cx="256" cy="256" r="256" fill="white"/>
<path d="M113.005 273.029L248.455 137.299C253.256 132.48 259.695 128.394 267.777 125.037C275.862 121.679 283.25 120 289.944 120H368.752C375.32 120 381.003 122.41 385.802 127.223C390.601 132.039 393 137.742 393 144.333V223.414C393 230.131 391.329 237.542 387.981 245.655C384.634 253.768 380.562 260.165 375.761 264.856L240.313 400.966C235.64 405.656 229.961 408 223.262 408C216.7 408 210.949 405.656 206.024 400.966L113.007 307.437C108.334 302.746 106 297.048 106 290.33C106 283.74 108.334 277.973 113.005 273.029ZM315.235 198.036C319.974 202.788 325.687 205.166 332.381 205.166C339.073 205.166 344.788 202.788 349.525 198.036C354.261 193.282 356.628 187.55 356.628 180.833C356.628 174.115 354.261 168.38 349.525 163.63C344.788 158.876 339.073 156.499 332.381 156.499C325.687 156.499 319.972 158.876 315.235 163.63C310.501 168.38 308.131 174.116 308.131 180.833C308.131 187.55 310.498 193.282 315.235 198.036Z" fill="url(#paint0_linear)"/>
<defs>
<linearGradient id="paint0_linear" x1="249.5" y1="120" x2="249.5" y2="408" gradientUnits="userSpaceOnUse">
<stop offset="0.03125" stop-color="#FF545E"/>
<stop offset="1" stop-color="#FFC959"/>
</linearGradient>
</defs>
</svg>
